<svg width="342" height="92" viewBox="0 0 342 92" fill="none" xmlns="http://www.w3.org/2000/svg">
<g filter="url(#filter0_d)">
<path d="M55.4713 47.36C55.5779 47.52 56.4313 48.88 58.0313 51.44C59.9513 54.5333 61.4979 56.7467 62.6713 58.08C63.8979 59.36 65.3913 60.1067 67.1513 60.32V63.52C66.2446 64.7467 65.1779 65.6533 63.9513 66.24C62.7246 66.8267 61.0979 67.12 59.0713 67.12C56.2979 67.12 54.0046 66.5333 52.1913 65.36C50.4313 64.1867 49.1246 62.9333 48.2713 61.6C47.4713 60.2667 46.3779 58.2133 44.9913 55.44C43.0713 51.6 41.2579 48.3467 39.5513 45.68C37.8979 43.0133 36.1913 41.3067 34.4313 40.56V56.88C34.4313 58.3733 34.7779 59.4133 35.4713 60C36.2179 60.5867 37.4713 60.88 39.2313 60.88C39.2313 61.84 39.0713 62.7733 38.7513 63.68C38.4313 64.5867 38.0046 65.36 37.4713 66H17.8713C17.3379 65.36 16.9113 64.5867 16.5913 63.68C16.2713 62.7733 16.1113 61.84 16.1113 60.88C17.8713 60.88 19.0979 60.5867 19.7913 60C20.5379 59.4133 20.9113 58.3733 20.9113 56.88V19.28C20.9113 17.7867 20.5379 16.7467 19.7913 16.16C19.0979 15.52 17.8713 15.2 16.1113 15.2C16.1113 14.2933 16.2713 13.3867 16.5913 12.48C16.9113 11.5733 17.3379 10.8 17.8713 10.16H37.4713C38.0046 10.8 38.4313 11.5733 38.7513 12.48C39.0713 13.3867 39.2313 14.2933 39.2313 15.2C37.4713 15.2 36.2179 15.52 35.4713 16.16C34.7779 16.7467 34.4313 17.7867 34.4313 19.28V35.12C35.6579 35.12 36.6446 35.1733 37.3913 35.28L48.6713 20.32C49.3646 19.4667 49.7113 18.5067 49.7113 17.44C49.7113 16.8 49.2046 16.2667 48.1913 15.84C47.2313 15.4133 46.1913 15.2 45.0713 15.2C45.0713 14.3467 45.2313 13.4667 45.5513 12.56C45.8713 11.6533 46.3246 10.8533 46.9113 10.16H65.5513C66.0846 10.8533 66.5113 11.6533 66.8313 12.56C67.1513 13.4667 67.3113 14.3467 67.3113 15.2C63.9513 15.2 61.2846 16.48 59.3113 19.04L44.1913 36.96C46.6446 38.08 48.6979 39.44 50.3513 41.04C52.0579 42.64 53.7646 44.7467 55.4713 47.36ZM93.9544 67.04C88.8344 67.04 84.4077 65.8667 80.6744 63.52C76.9944 61.12 74.1677 57.7333 72.1944 53.36C70.221 48.9867 69.2344 43.92 69.2344 38.16C69.2344 32.1333 70.2477 26.96 72.2744 22.64C74.301 18.2667 77.1544 14.9333 80.8344 12.64C84.5677 10.3467 88.9144 9.2 93.8744 9.2C98.9944 9.2 103.421 10.4 107.154 12.8C110.888 15.2 113.741 18.5867 115.714 22.96C117.741 27.28 118.754 32.3467 118.754 38.16C118.754 44.1333 117.714 49.3067 115.634 53.68C113.608 58 110.728 61.3067 106.994 63.6C103.261 65.8933 98.9144 67.04 93.9544 67.04ZM93.9544 61.2C96.8877 61.2 99.261 59.52 101.074 56.16C102.941 52.8 103.874 46.6933 103.874 37.84C103.874 29.4133 103.021 23.52 101.314 20.16C99.6077 16.8 97.2077 15.12 94.1144 15.12C91.181 15.12 88.781 16.8 86.9144 20.16C85.101 23.52 84.1944 29.6 84.1944 38.4C84.1944 46.8267 85.0477 52.7467 86.7544 56.16C88.5144 59.52 90.9144 61.2 93.9544 61.2ZM137.55 56.88C137.55 59.6 139.497 60.96 143.39 60.96C143.39 62.8267 142.777 64.5067 141.55 66H124.91C123.737 64.56 123.15 62.88 123.15 60.96C125.017 60.96 126.403 60.64 127.31 60C128.217 59.36 128.67 58.32 128.67 56.88V19.28C128.67 16.56 126.723 15.2 122.83 15.2C122.83 14.2933 122.99 13.3867 123.31 12.48C123.63 11.5733 124.057 10.8 124.59 10.16H135.71C137.257 10.16 138.803 10.7733 140.35 12C141.897 13.1733 143.363 14.8267 144.75 16.96L162.91 45.68V19.28C162.91 17.84 162.43 16.8 161.47 16.16C160.51 15.52 159.097 15.2 157.23 15.2C157.23 14.24 157.39 13.3333 157.71 12.48C158.03 11.5733 158.483 10.8 159.07 10.16H176.11C176.697 10.8 177.15 11.5733 177.47 12.48C177.79 13.3867 177.95 14.2933 177.95 15.2C176.137 15.2 174.75 15.52 173.79 16.16C172.883 16.8 172.43 17.84 172.43 19.28V66.48H169.23C166.617 66.48 164.697 66.16 163.47 65.52C162.243 64.8267 161.07 63.6533 159.95 62L137.55 28V56.88ZM214.001 28C213.521 24.4267 212.534 21.5733 211.041 19.44C209.601 17.3067 207.734 16.24 205.441 16.24C202.187 16.24 199.601 17.7867 197.681 20.88C195.761 23.92 194.801 28.64 194.801 35.04C194.801 42.7733 196.294 48.4267 199.281 52C202.267 55.5733 206.134 57.36 210.881 57.36C213.174 57.36 215.201 56.9333 216.961 56.08C218.721 55.2267 219.974 54.2133 220.721 53.04C221.361 53.52 221.894 54.24 222.321 55.2C222.747 56.16 222.961 57.04 222.961 57.84C222.961 59.1733 222.267 60.56 220.881 62C219.547 63.44 217.601 64.6667 215.041 65.68C212.481 66.64 209.521 67.12 206.161 67.12C201.467 67.12 197.174 66.0267 193.281 63.84C189.441 61.6533 186.374 58.3467 184.081 53.92C181.787 49.4933 180.641 44.1333 180.641 37.84C180.641 31.7067 181.681 26.5067 183.761 22.24C185.841 17.92 188.747 14.6933 192.481 12.56C196.267 10.3733 200.667 9.28 205.681 9.28C206.854 9.28 208.187 9.44 209.681 9.76C211.174 10.08 212.481 10.5067 213.601 11.04C214.401 10.6667 215.574 10.2933 217.121 9.92C218.667 9.54667 219.867 9.33333 220.721 9.28C222.267 13.0667 223.041 19.3067 223.041 28H214.001ZM272.186 49.12C272.186 50.88 271.759 54.0267 270.906 58.56C270.052 63.04 269.279 65.9467 268.586 67.28C267.732 67.0667 266.612 66.64 265.226 66H228.186C226.959 64.4 226.346 62.72 226.346 60.96C228.159 60.96 229.492 60.64 230.346 60C231.199 59.36 231.626 58.2933 231.626 56.8V19.28C231.626 17.84 231.199 16.8 230.346 16.16C229.546 15.52 228.239 15.2 226.426 15.2C226.426 13.44 227.039 11.76 228.266 10.16H259.306C260.212 9.73333 261.252 9.41333 262.426 9.2C263.652 8.93333 264.772 8.8 265.786 8.8C266.586 10.3467 267.439 12.48 268.346 15.2C269.306 17.92 269.786 19.8933 269.786 21.12C269.146 21.7067 268.052 22.32 266.506 22.96C264.959 23.6 263.626 24.0267 262.506 24.24C261.812 22.2667 260.719 20.56 259.226 19.12C257.732 17.68 255.999 16.96 254.026 16.96H244.986V33.84H250.746C254.212 33.84 255.946 31.8933 255.946 28C258.346 28 260.506 28.56 262.426 29.68V44.56C261.572 45.0933 260.586 45.52 259.466 45.84C258.346 46.1067 257.199 46.24 256.026 46.24C256.026 44.2133 255.546 42.6933 254.586 41.68C253.626 40.6667 252.372 40.16 250.826 40.16H244.986V58.96H254.666C256.906 58.96 258.852 58.0267 260.506 56.16C262.159 54.24 263.199 51.8933 263.626 49.12H272.186ZM319.503 53.68C320.09 55.7067 320.836 57.2267 321.743 58.24C322.703 59.2 323.93 59.7867 325.423 60V64C324.196 65.7067 321.876 66.56 318.463 66.56C315.263 66.56 312.73 66.0267 310.863 64.96C309.05 63.8933 307.69 62.5067 306.783 60.8C305.93 59.04 305.13 56.7467 304.383 53.92C303.583 50.7733 302.73 48.16 301.823 46.08C300.916 44 299.743 42.72 298.303 42.24H293.023V56.88C293.023 58.2667 293.53 59.3067 294.543 60C295.556 60.64 296.89 60.96 298.543 60.96C298.543 62.88 297.956 64.56 296.783 66H276.703C275.476 64.5067 274.863 62.8267 274.863 60.96C276.676 60.96 277.983 60.64 278.783 60C279.636 59.36 280.063 58.32 280.063 56.88V19.28C280.063 17.84 279.636 16.8 278.783 16.16C277.93 15.52 276.596 15.2 274.783 15.2C274.783 13.0667 275.316 11.3867 276.383 10.16C279.903 10.16 283.85 10.0533 288.223 9.84C292.063 9.62666 295.076 9.52 297.263 9.52C312.516 9.52 320.143 14.6667 320.143 24.96C320.143 32.8 315.983 37.5733 307.663 39.28C310.063 39.9733 312.356 41.6533 314.543 44.32C316.73 46.9333 318.383 50.0533 319.503 53.68ZM296.543 36.72C299.743 36.72 302.25 35.7333 304.063 33.76C305.876 31.7333 306.783 29.0667 306.783 25.76C306.783 22.3467 305.983 19.8133 304.383 18.16C302.836 16.4533 300.356 15.6 296.943 15.6C295.13 15.6 293.823 15.7067 293.023 15.92V36.56C293.983 36.6667 295.156 36.72 296.543 36.72Z" fill="url(#paint0_linear)"/>
</g>
<defs>
<filter id="filter0_d" x="0.111252" y="0.799988" width="341.312" height="90.48" filterUnits="userSpaceOnUse" color-interpolation-filters="sRGB">
<feFlood flood-opacity="0" result="BackgroundImageFix"/>
<feColorMatrix in="SourceAlpha" type="matrix" values="0 0 0 0 0 0 0 0 0 0 0 0 0 0 0 0 0 0 127 0" result="hardAlpha"/>
<feOffset dy="8"/>
<feGaussianBlur stdDeviation="8"/>
<feComposite in2="hardAlpha" operator="out"/>
<feColorMatrix type="matrix" values="0 0 0 0 0 0 0 0 0 0 0 0 0 0 0 0 0 0 0.2 0"/>
<feBlend mode="normal" in2="BackgroundImageFix" result="effect1_dropShadow"/>
<feBlend mode="normal" in="SourceGraphic" in2="effect1_dropShadow" result="shape"/>
</filter>
<linearGradient id="paint0_linear" x1="14" y1="-14" x2="325.199" y2="89.4006" gradientUnits="userSpaceOnUse">
<stop stop-color="#BD7B1A"/>
<stop offset="0.483975" stop-color="#F9D684"/>
<stop offset="1" stop-color="#BF7A1F"/>
</linearGradient>
</defs>
</svg>
